#!OML:ASF I:\Actors\actors\Patient Classification 2\Patient 1\Session 1\actor1.ASF
:FULLY-SPECIFIED
:DEGREES
435
root -0.618658 18.2611 7.50053 -5.03627 -13.4913 -9.16086
lowerback -3.33974 -0.240991 -0.576973
upperback -4.28369 -0.297366 1.56704
thorax -2.51813 -0.111747 1.93105
lowerneck -10.5865 2.44284 2.66447
upperneck 18.0305 1.86325 5.18336
head 7.26329 1.53662 1.41809
rclavicle 9.74045e-015 -3.33958e-014
rhumerus -33.6714 -46.0118 21.6164
rradius 60.7971
rwrist -58.9933
rhand -8.50956 -29.2904
rfingers 7.12502
rthumb 17.4185 -58.53
lclavicle 9.74045e-015 -3.33958e-014
lhumerus 3.20367 47.0429 7.96097
lradius 58.7915
lwrist 64.3824
lhand -16.0263 -18.8237
lfingers 7.12502
lthumb 10.1747 10.9103
rfemur 19.1882 7.0529 23.5323
rtibia 5.725e-014
rfoot -17.228 -6.61128
rtoes -12.0095
lfemur 9.77914 -4.9486 -8.49533
ltibia 26.2746
lfoot -32.9032 14.0561
ltoes -55.0919
436
root -0.630529 18.2669 7.49252 -5.09438 -11.873 -8.94766
lowerback -3.43913 -0.182087 -0.656772
upperback -4.10064 -0.216463 1.627
thorax -2.27593 -0.0700648 2.03715
lowerneck -10.6499 2.82244 2.80167
upperneck 17.2756 2.32833 5.5682
head 7.02105 1.78951 1.55146
rclavicle 2.22639e-014 -2.38542e-015
rhumerus -34.5871 -45.6476 21.6897
rradius 61.4334
rwrist -60.2608
rhand -9.49507 -29.351
rfingers 7.12502
rthumb 16.4698 -58.6719
lclavicle 2.22639e-014 -2.38542e-015
lhumerus 3.29003 47.7061 8.03748
lradius 58.5751
lwrist 64.3954
lhand -15.8942 -18.7902
lfingers 7.12502
lthumb 10.3022 10.9374
rfemur 19.2853 5.43754 23.1226
rtibia -7.4743e-014
rfoot -17.3175 -6.40463
rtoes -11.7793
lfemur 9.12642 -5.48596 -8.4381
ltibia 26.4496
lfoot -32.2572 13.3509
ltoes -55.3866
437
root -0.642362 18.2704 7.48385 -5.17483 -10.1643 -8.63931
lowerback -3.87405 -0.155543 -0.969269
upperback -3.64409 -0.175045 1.75094
thorax -1.56268 -0.0480637 2.33784
lowerneck -10.8598 3.3296 3.17419
upperneck 16.2875 2.98939 5.62711
head 6.73589 2.11735 1.5551
rclavicle 2.78299e-015 0
rhumerus -35.1448 -46.5 21.9414
rradius 61.2057
rwrist -60.0237
rhand -9.02346 -29.9441
rfingers 7.12502
rthumb 16.9239 -59.2268
lclavicle 2.78299e-015 0
lhumerus 3.27195 48.859 8.10654
lradius 58.4189
lwrist 64.5285
lhand -15.5842 -18.7862
lfingers 7.12502
lthumb 10.6013 10.9264
rfemur 19.4093 3.74826 22.5833
rtibia -7.95139e-015
rfoot -17.3869 -6.15246
rtoes -11.5232
lfemur 8.43943 -5.87866 -8.42421
ltibia 26.62
lfoot -31.4521 12.5046
ltoes -55.7462
438
root -0.65473 18.2729 7.47668 -5.2807 -8.44933 -8.27835
lowerback -3.17201 -0.0305462 -0.920068
upperback -4.04053 -0.0078279 1.60933
thorax -2.37234 0.0428207 2.16982
lowerneck -10.698 3.70579 3.75795
upperneck 16.0917 3.40456 5.73886
head 6.6519 2.35785 1.52631
rclavicle -1.76918e-014 1.66979e-014
rhumerus -35.1996 -46.5827 21.9733
rradius 60.3762
rwrist -59.2958
rhand -8.26994 -30.2814
rfingers 7.12502
rthumb 17.6491 -59.5004
lclavicle -1.76918e-014 1.66979e-014
lhumerus 3.14944 48.6757 7.81666
lradius 58.3445
lwrist 65.061
lhand -15.4301 -18.9641
lfingers 7.12502
lthumb 10.7499 10.7408
rfemur 19.5766 2.06393 21.9664
rtibia -3.02153e-014
rfoot -17.4072 -5.85951
rtoes -11.4761
lfemur 7.7779 -6.27144 -8.48915
ltibia 26.7934
lfoot -30.7028 11.6564
ltoes -56.0887
439
root -0.669836 18.2762 7.46833 -5.38722 -6.66925 -7.99273
lowerback -2.90658 0.05118 -0.973669
upperback -4.14183 0.103179 1.58517
thorax -2.6311 0.103003 2.17627
lowerneck -10.7699 4.09615 4.15903
upperneck 15.7987 3.86178 5.85834
head 6.57399 2.60741 1.53647
rclavicle -2.34566e-014 1.43125e-014
rhumerus -35.2876 -46.7441 21.8379
rradius 59.8982
rwrist -59.249
rhand -8.44538 -30.2555
rfingers 7.12502
rthumb 17.4803 -59.4896
lclavicle -2.34566e-014 1.43125e-014
lhumerus 2.98829 48.915 7.58915
lradius 58.2291
lwrist 65.4326
lhand -15.5394 -19.2315
lfingers 7.12502
lthumb 10.6445 10.4788
rfemur 19.7912 0.308081 21.4164
rtibia -3.81667e-014
rfoot -17.4211 -5.51361
rtoes -11.4464
lfemur 7.11592 -6.77157 -8.48627
ltibia 26.9694
lfoot -30.0799 10.744
ltoes -56.2554
440
root -0.677866 18.2843 7.45451 -5.41834 -5.00302 -7.77401
lowerback -2.83712 0.178054 -0.886061
upperback -4.09712 0.27292 1.60128
thorax -2.63102 0.186003 2.14427
lowerneck -10.9578 4.52041 4.48297
upperneck 15.3702 4.38235 5.94462
head 6.47169 2.87656 1.55401
rclavicle 1.05356e-014 -1.59028e-014
rhumerus -35.4772 -46.7959 21.6075
rradius 59.7099
rwrist -59.5783
rhand -8.84124 -30.2492
rfingers 7.12502
rthumb 17.0993 -59.5168
lclavicle 1.05356e-014 -1.59028e-014
lhumerus 2.85101 49.2988 7.44977
lradius 58.1419
lwrist 65.2577
lhand -15.9848 -19.3127
lfingers 7.12502
lthumb 10.2148 10.4193
rfemur 19.9072 -1.33142 20.9142
rtibia -4.77083e-014
rfoot -17.4286 -5.15953
rtoes -10.8401
lfemur 6.37497 -7.32788 -8.49982
ltibia 27.1781
lfoot -29.5996 10.0213
ltoes -56.402
441
root -0.669192 18.3018 7.43241 -5.30955 -3.70344 -7.53312
lowerback -2.63561 0.464797 -0.471245
upperback -4.14422 0.653056 1.56031
thorax -2.80375 0.365459 1.86893
lowerneck -11.2599 4.94388 4.76179
upperneck 15.0743 4.89369 6.02466
head 6.43156 3.14248 1.58273
rclavicle 3.20043e-014 -1.11319e-014
rhumerus -35.6531 -46.9564 21.3908
rradius 59.4768
rwrist -59.7152
rhand -8.91571 -30.4324
rfingers 7.12502
rthumb 17.0276 -59.7062
lclavicle 3.20043e-014 -1.11319e-014
lhumerus 2.60466 49.4215 7.18247
lradius 58.0986
lwrist 64.7949
lhand -16.9441 -19.3485
lfingers 7.12502
lthumb 9.28931 10.4268
rfemur 19.7532 -2.58903 20.376
rtibia -3.49861e-014
rfoot -17.3083 -4.94077
rtoes -10.3315
lfemur 5.53363 -7.83616 -8.70093
ltibia 27.4152
lfoot -29.2283 9.7391
ltoes -56.6178
